<svg width="296" height="192" viewBox="0 0 296 192" fill="none" xmlns="http://www.w3.org/2000/svg">
<path d="M0 88.425C0 42.399 37.3115 5.08752 83.3375 5.08752H211.663C257.689 5.08752 295 42.399 295 88.425V107.501C295 149.988 258.119 183.072 215.881 178.474C170.428 173.525 124.572 173.525 79.1191 178.474C36.8813 183.072 0 149.988 0 107.501V88.425Z" fill="#F3F3F3"/>
<g style="mix-blend-mode:multiply">
<path d="M287.441 35.6643C277.58 15.5923 252.027 -2.97935 219.538 0.400072C192.814 3.17332 177.666 18.2368 165 30.2996C162.187 32.9744 158.27 35.3688 154.139 35.0733C158.137 35.9371 161.716 36.1113 164.875 34.7778C166.142 33.8761 167.35 32.9214 168.439 32.05C172.46 28.8372 190.185 12.7585 214.42 11.8644C243.139 10.8414 266.498 33.7776 271.328 62.1617C283.214 132.031 230.009 177.782 195.598 191.088C221.703 184.533 272.499 157.619 289.804 105.291C297.249 82.7792 296.896 54.8952 287.441 35.6643Z" fill="#0033A0"/>
</g>
<g style="mix-blend-mode:multiply">
<path d="M8.29959 35.6643C18.1599 15.5923 43.7128 -2.97935 76.2025 0.400072C102.926 3.17332 118.074 18.2368 130.74 30.2996C133.553 32.9744 137.47 35.3688 141.602 35.0733C137.603 35.9371 134.024 36.1113 130.865 34.7778C129.598 33.8761 128.391 32.9214 127.301 32.05C123.28 28.8372 105.555 12.7585 81.3204 11.8644C52.601 10.8414 29.2426 33.7776 24.4119 62.1617C12.5265 132.031 65.7309 177.782 100.143 191.088C74.0375 184.533 23.241 157.619 5.93578 105.291C-1.50916 82.7792 -1.1557 54.8952 8.29959 35.6643Z" fill="#0033A0"/>
</g>
</svg>
