<svg width="44" height="44" viewBox="0 0 44 44" fill="none" xmlns="http://www.w3.org/2000/svg">
<path fill-rule="evenodd" clip-rule="evenodd" d="M34.2957 16.1266C34.2957 18.4292 34.9042 19.7863 36.2435 21.3503C37.2584 22.5025 37.5827 23.9815 37.5827 25.586C37.5827 27.1888 37.0561 28.7103 36.0011 29.9455C34.62 31.4264 32.6722 32.3718 30.6843 32.5361C27.8036 32.7817 24.9211 32.9885 22.0003 32.9885C19.0776 32.9885 16.1969 32.8648 13.3162 32.5361C11.3265 32.3718 9.37872 31.4264 7.9994 29.9455C6.94442 28.7103 6.41602 27.1888 6.41602 25.586C6.41602 23.9815 6.74217 22.5025 7.75524 21.3503C9.13638 19.7863 9.70487 18.4292 9.70487 16.1266V15.3456C9.70487 12.262 10.4738 10.2456 12.0572 8.27175C14.4113 5.39312 18.1848 3.66667 21.9183 3.66667H22.0823C25.8959 3.66667 29.7915 5.47621 32.1055 8.47856C33.6069 10.4118 34.2957 12.3432 34.2957 15.3456V16.1266ZM16.6345 36.7782C16.6345 35.8549 17.4817 35.4321 18.2652 35.2511C19.1817 35.0573 24.7664 35.0573 25.6829 35.2511C26.4664 35.4321 27.3137 35.8549 27.3137 36.7782C27.2681 37.6571 26.7525 38.4363 26.04 38.9311C25.1162 39.6513 24.0321 40.1073 22.8988 40.2717C22.272 40.3529 21.6561 40.3548 21.0512 40.2717C19.916 40.1073 18.8319 39.6513 17.9099 38.9293C17.1957 38.4363 16.68 37.6571 16.6345 36.7782Z" fill="white"/>
</svg>
